<svg width="237" height="68" fill="none" xmlns="http://www.w3.org/2000/svg"><path d="M20.357 23.539c1.896 0 3.476-1.58 3.476-3.474 0-1.895-1.58-3.474-3.476-3.474-1.895 0-3.475 1.58-3.475 3.474a3.455 3.455 0 003.475 3.474zm-8.372 0c1.895 0 3.475-1.58 3.475-3.474 0-1.895-1.58-3.474-3.475-3.474-1.896 0-3.476 1.58-3.476 3.474a3.455 3.455 0 003.476 3.474zm129.856 20.843h-6.556V26.54h-12.322c-6.398 0-11.611 6.08-11.611 12.474 0 6.395 5.213 11.606 11.611 11.606h6.003c0 .632-.158 1.816-1.343 2.685-1.106.868-4.186 2.052-10.031.71l-1.343 5.922c2.291.552 4.265.71 6.003.71 4.344 0 7.109-1.342 8.768-2.684a9.582 9.582 0 003.633-7.5h13.981v-24.08h-6.793v18zm-13.349 0h-4.344c-3.239 0-5.924-2.447-5.924-5.684a5.914 5.914 0 015.924-5.922h4.344v11.606zm16.745 9.158c-1.895 0-3.475 1.58-3.475 3.474 0 1.895 1.58 3.474 3.475 3.474 1.896 0 3.476-1.579 3.476-3.474 0-1.894-1.58-3.473-3.476-3.473z" fill="#E30613"/><path d="M100.056 40.356c0 2.29-1.737 4.026-4.028 4.026-2.29 0-3.634-1.737-3.634-4.026v-9.87h-6.872v9.712c0 2.29-1.895 4.184-4.186 4.184h-2.37V30.487h-6.871v13.895h-8.531s.158-.237.474-.631c2.922-4.343 1.659-10.817-1.896-14.449-2.607-2.684-6.556-3.947-10.19-3.316-5.213.869-7.582 3.948-11.61 9.554V16.59h-6.873v27.712h-6.556V26.46H11.748C5.428 26.46.926 31.513.926 38.698c0 7.263 5.056 12.553 11.217 12.553 3.396 0 6.003-1.263 7.74-3.632l.158-.237 1.185 3.158h60.821c2.765 0 5.213-1.105 7.03-2.92 1.817 1.815 4.265 2.92 7.03 2.92 5.45 0 10.821-4.42 10.821-9.869v-14.21h-6.872v13.895zm-80.015-1.58c0 4.027-2.448 6.396-6.16 6.396-3.713 0-6.083-2.29-6.083-6.395 0-4.106 2.37-6 6.082-6h6.161v6zm38.705-.078c-.158.79-.474 1.579-.948 2.368-1.343 2.21-3.95 3.316-6.556 3.316H39.867s2.765-3.395 4.345-5.21c2.527-2.922 5.134-6.396 8.688-7.027 3.95-.632 6.477 3.079 5.846 6.553zm175.353-20.607L204.399.96a3.78 3.78 0 00-3.87 0L170.83 18.09c-1.185.71-1.975 1.974-1.975 3.395v25.107c0 1.421.711 2.684 1.975 3.395l29.699 17.132c.632.316 1.264.553 1.975.553.711 0 1.342-.158 1.974-.553l29.7-17.132c1.185-.71 1.975-1.974 1.975-3.395V21.486a4.24 4.24 0 00-2.054-3.395zm-4.897 22.265l-10.98-6.317 10.98-6.316v12.633zM202.425 7.749L226.2 21.486l-23.775 13.738-23.776-13.738L202.425 7.75zm-26.698 19.895l10.979 6.317-10.979 6.316V27.644zm26.698 32.608l-23.776-13.738 14.85-8.606 6.951 4.027c.632.316 1.264.552 1.975.552.711 0 1.343-.158 1.974-.552l6.951-4.027 14.85 8.606-23.775 13.737z" fill="#E30613"/></svg>