<!DOCTYPE svg PUBLIC "-//W3C//DTD SVG 1.1//EN" "http://www.w3.org/Graphics/SVG/1.1/DTD/svg11.dtd">
<!-- Uploaded to: SVG Repo, www.svgrepo.com, Transformed by: SVG Repo Mixer Tools -->
<svg width="800px" height="800px" viewBox="0 0 1024 1024" class="icon" version="1.1" xmlns="http://www.w3.org/2000/svg" fill="#cf2626" stroke="#cf2626">
<g id="SVGRepo_bgCarrier" stroke-width="0"/>
<g id="SVGRepo_tracerCarrier" stroke-linecap="round" stroke-linejoin="round"/>
<g id="SVGRepo_iconCarrier">
<path d="M512 64C264.96 64 64 264.96 64 512s200.96 448 448 448 448-200.96 448-448-200.96-448-448-448z m0 831.744A384.128 384.128 0 0 1 128.256 512 384.128 384.128 0 0 1 512 128.256 384.128 384.128 0 0 1 895.744 512 384.192 384.192 0 0 1 512 895.744zM512 254.08a140.16 140.16 0 0 0-140.672 139.392 32.128 32.128 0 0 0 64.32 0c0-42.112 33.536-75.136 76.352-75.136 42.112 0 76.352 34.56 76.352 76.992 0 16-22.912 38.976-43.2 59.2-30.592 30.592-65.28 65.28-65.28 111.744v45.888a32.128 32.128 0 1 0 64.256 0v-45.888c0-19.84 23.68-43.52 46.464-66.304 29.056-29.056 62.08-62.016 62.08-104.64A141.12 141.12 0 0 0 512 254.08z m-48.192 500.928a48.192 48.192 0 1 0 96.384 0 48.192 48.192 0 0 0-96.384 0z" fill="#e70d0d"/>
</g>
</svg>